<?xml version="1.0" encoding="UTF-8"?>
<!DOCTYPE svg PUBLIC "-//W3C//DTD SVG 1.1//EN" "http://www.w3.org/Graphics/SVG/1.1/DTD/svg11.dtd">
<svg xmlns="http://www.w3.org/2000/svg" version="1.1" width="41px" height="86px" style="shape-rendering:geometricPrecision; text-rendering:geometricPrecision; image-rendering:optimizeQuality; fill-rule:evenodd; clip-rule:evenodd" xmlns:xlink="http://www.w3.org/1999/xlink">
<g><path style="opacity:0.875" fill="#c10f07" d="M 22.5,58.5 C 26.8618,58.2437 31.1951,58.077 35.5,58C 36.4505,61.0567 36.7839,64.2234 36.5,67.5C 35.8333,67.5 35.5,67.8333 35.5,68.5C 26.7634,69.4006 18.0968,70.7339 9.5,72.5C 9.5,51.5 9.5,30.5 9.5,9.5C 13.1667,9.5 16.8333,9.5 20.5,9.5C 20.6435,25.9287 20.3102,42.4287 19.5,59C 20.7494,59.7401 21.7494,59.5735 22.5,58.5 Z"/></g>
<g><path style="opacity:0.436" fill="#c10f07" d="M 22.5,58.5 C 21.7992,-4.48996 21.7992,-5.15663 22.5,56.5C 26.81,55.9198 31.1434,55.5865 35.5,55.5C 36.0031,50.5 36.3364,50.8333 36.5,56.5C 31.6093,56.5319 26.9426,57.1985 22.5,58.5 Z"/></g>
<g><path style="opacity:0.158" fill="#c10f07" d="M 37.5,54.5 C 38.5735,55.2506 38.7401,56.2506 38,57.5C 37.5172,56.552 37.3505,55.552 37.5,54.5 Z"/></g>
<g><path style="opacity:0.383" fill="#c10f07" d="M 35.5,68.5 C 36.1667,68.5 36.5,68.1667 36.5,67.5C 37.3138,65.369 37.8138,63.0356 38,60.5C 39.8501,63.9753 39.3501,67.142 36.5,70C 27.2717,71.9826 18.2717,73.4826 9.5,74.5C 18.2282,72.2744 26.8949,70.2744 35.5,68.5 Z"/></g>
</svg>
